<!DOCTYPE svg PUBLIC "-//W3C//DTD SVG 1.1//EN" "http://www.w3.org/Graphics/SVG/1.1/DTD/svg11.dtd"> <svg width="521px" height="235px" version="1.0" baseProfile="full" xmlns="http://www.w3.org/2000/svg" xmlns:xlink="http://www.w3.org/1999/xlink" xmlns:ev="http://www.w3.org/2001/xml-events"><defs><linearGradient x1="41.97721822541966%" x2="44.56654676258992%" y1="67.79239690721649%" y2="67.79239690721649%" id="left-inner-eye-gradient" gradientUnits="userSpaceOnUse"><stop stop-color="#BA86F3"></stop><stop offset="0.5281" stop-color="#B786F4"></stop><stop offset="0.8987" stop-color="#AE86F5"></stop><stop offset="1" stop-color="#AA86F6"></stop></linearGradient><linearGradient x1="56.72805755395684%" x2="56.72805755395684%" y1="81.08904639175258%" y2="54.49574742268041%" id="right-inner-eye-gradient" gradientUnits="userSpaceOnUse"><stop stop-color="#BA86F3"></stop><stop offset="0.5281" stop-color="#B786F4"></stop><stop offset="0.8987" stop-color="#AE86F5"></stop><stop offset="1" stop-color="#AA86F6"></stop></linearGradient><linearGradient x1="25.107913669064747%" x2="25.107913669064747%" y1="72.68865979381442%" y2="89.44690721649484%" id="left-middle-cheek-gradient" gradientUnits="userSpaceOnUse"><stop stop-color="#6848BA"></stop><stop offset="0.3363" stop-color="#6356D5"></stop></linearGradient><linearGradient x1="74.89208633093526%" x2="74.89208633093526%" y1="51.32938144329896%" y2="94.76301546391753%" id="right-middle-cheek-gradient" gradientUnits="userSpaceOnUse"><stop stop-color="#6848BA"></stop><stop offset="0.3363" stop-color="#6356D5"></stop></linearGradient><linearGradient x1="67.00671462829736%" x2="67.00671462829736%" y1="30.13930412371134%" y2="54.49561855670103%" id="right-forehead-gradient" gradientUnits="userSpaceOnUse"><stop stop-color="#DC69E6"></stop><stop offset="1" stop-color="#C289F3"></stop></linearGradient><linearGradient x1="32.99340527577938%" x2="32.99340527577938%" y1="30.13930412371134%" y2="54.49561855670103%" id="left-forehead-gradient" gradientUnits="userSpaceOnUse"><stop stop-color="#DC69E6"></stop><stop offset="1" stop-color="#C289F3"></stop></linearGradient><linearGradient x1="95.056858513189448%" x2="57.31654676258992%" y1="15.06958762886598%" y2="15.06958762886598%" id="right-top-ear-gradient" gradientUnits="userSpaceOnUse"><stop stop-color="#BB65ED"></stop><stop offset="1" stop-color="#E560E3"></stop></linearGradient><linearGradient x1="4.943141486810552%" x2="42.68345323741008%" y1="15.06958762886598%" y2="15.06958762886598%" id="left-top-ear-gradient" gradientUnits="userSpaceOnUse"><stop stop-color="#BB65ED"></stop><stop offset="1" stop-color="#E560E3"></stop></linearGradient><linearGradient x1="15.103956834532372%" x2="15.103956834532372%" y1="72.6889175257732%" y2="96.03221649484537%" id="left-lower-cheek-gradient" gradientUnits="userSpaceOnUse"><stop stop-color="#906EF7"></stop><stop offset="1" stop-color="#575ADE"></stop></linearGradient><linearGradient x1="84.91570743405276%" x2="84.91570743405276%" y1="72.6889175257732%" y2="96.03221649484537%" id="right-lower-cheek-gradient" gradientUnits="userSpaceOnUse"><stop stop-color="#906EF7"></stop><stop offset="1" stop-color="#575ADE"></stop></linearGradient><linearGradient x1="68.7720623501199%" x2="78.03057553956835%" y1="63.14909793814433%" y2="63.14909793814433%" id="right-outer-eye-gradient" gradientUnits="userSpaceOnUse"><stop stop-color="#BA86F3"></stop><stop offset="0.5281" stop-color="#B786F4"></stop><stop offset="0.8987" stop-color="#AE86F5"></stop><stop offset="1" stop-color="#AA86F6"></stop></linearGradient><linearGradient x1="21.969424460431654%" x2="31.227937649880094%" y1="63.14909793814433%" y2="63.14909793814433%" id="left-outer-eye-gradient" gradientUnits="userSpaceOnUse"><stop stop-color="#BA86F3"></stop><stop offset="0.5281" stop-color="#B786F4"></stop><stop offset="0.8987" stop-color="#AE86F5"></stop><stop offset="1" stop-color="#AA86F6"></stop></linearGradient><linearGradient x1="50%" x2="4%" y1="30%" y2="4%" id="left-ear-gradient" gradientUnits="userSpaceOnUse"><stop stop-color="#541758"></stop><stop offset="0.4286" stop-color="#4F206C"></stop><stop offset="0.62" stop-color="#4D2577"></stop><stop offset="1" stop-color="#8B45B6"></stop></linearGradient><linearGradient x1="50%" x2="96%" y1="30%" y2="4%" id="right-ear-gradient" gradientUnits="userSpaceOnUse"><stop stop-color="#541758"></stop><stop offset="0.4286" stop-color="#4F206C"></stop><stop offset="0.62" stop-color="#4D2577"></stop><stop offset="1" stop-color="#8B45B6"></stop></linearGradient><linearGradient x1="30.914028776978412%" x2="44.56654676258992%" y1="72.83646907216496%" y2="72.83646907216496%" id="left-below-eye-gradient" gradientUnits="userSpaceOnUse"><stop stop-color="#C8A8F7"></stop><stop offset="1" stop-color="#BAAAFB"></stop></linearGradient><linearGradient x1="55.43345323741007%" x2="69.12517985611511%" y1="72.83646907216496%" y2="72.83646907216496%" id="right-below-eye-gradient" gradientUnits="userSpaceOnUse"><stop stop-color="#C8A8F7"></stop><stop offset="1" stop-color="#BAAAFB"></stop></linearGradient><linearGradient x1="16.02589928057554%" x2="16.02589928057554%" y1="43.35154639175258%" y2="72.85773195876288%" id="left-upper-cheek-gradient" gradientUnits="userSpaceOnUse"><stop stop-color="#B65FE5"></stop><stop offset="1" stop-color="#ADA2FC"></stop></linearGradient><linearGradient x1="83.99364508393285%" x2="83.99364508393285%" y1="43.35154639175258%" y2="72.85773195876288%" id="right-upper-cheek-gradient" gradientUnits="userSpaceOnUse"><stop stop-color="#B65FE5"></stop><stop offset="1" stop-color="#ADA2FC"></stop></linearGradient><linearGradient x1="50%" x2="50%" y1="12.790180412371136%" y2="81.08904639175258%" id="forehead-gradient" gradientUnits="userSpaceOnUse"><stop stop-color="#FB7FE4"></stop><stop offset="1" stop-color="#BCABFB"></stop></linearGradient><linearGradient x1="50%" x2="50%" y1="12.790180412371136%" y2="81.08904639175258%" id="back-gradient" gradientUnits="userSpaceOnUse"><stop stop-color="#FB7FE4"></stop><stop offset="1" stop-color="#5C5CE0"></stop></linearGradient></defs><polygon fill="url('#forehead-gradient')" stroke="url('#forehead-gradient')" points="246.11057031154633,46.074340760707855 300.076214723289,46.18529540300369 288.39117758721113,71.97235673666"></polygon><polygon fill="url('#forehead-gradient')" stroke="url('#forehead-gradient')" points="288.39117758721113,71.97235673666 258.1362265795469,71.92263016104698 246.11057031154633,46.074340760707855"></polygon><polygon fill="url('#right-top-ear-gradient')" stroke="url('#right-top-ear-gradient')" points="363.4704201221466,15.315886795520782 288.39117758721113,71.97235673666 300.076214723289,46.18529540300369"></polygon><polygon fill="url('#left-top-ear-gradient')" stroke="url('#left-top-ear-gradient')" points="258.1362265795469,71.92263016104698 182.96575266122818,14.855249345302582 246.11057031154633,46.074340760707855"></polygon><polygon fill="url('#right-ear-gradient')" stroke="url('#right-ear-gradient')" points="334.00568345189095,97.78947186470032 370.2033950686455,80.00086989998817 368.5067228078842,87.93370908498764"></polygon><polygon fill="url('#right-ear-gradient')" stroke="url('#right-ear-gradient')" points="367.510262042284,97.46660634875298 334.00568345189095,97.78947186470032 368.5067228078842,87.93370908498764"></polygon><polygon fill="url('#left-ear-gradient')" stroke="url('#left-ear-gradient')" points="212.1417984366417,97.63935124874115 177.61722153425217,87.66832369565964 175.9076943397522,79.70607879757881"></polygon><polygon fill="url('#right-ear-gradient')" stroke="url('#right-ear-gradient')" points="362.9160389006138,111.39874391257763 319.11516688764095,99.67697547376156 334.00568345189095,97.78947186470032"></polygon><polygon fill="url('#right-ear-gradient')" stroke="url('#right-ear-gradient')" points="367.510262042284,97.46660634875298 362.9160389006138,111.39874391257763 334.00568345189095,97.78947186470032"></polygon><polygon fill="url('#right-ear-gradient')" stroke="url('#right-ear-gradient')" points="370.2033950686455,80.00086989998817 334.00568345189095,97.78947186470032 331.959495306015,53.223419308662415"></polygon><polygon fill="url('#right-ear-gradient')" stroke="url('#right-ear-gradient')" points="331.959495306015,53.223419308662415 334.00568345189095,97.78947186470032 319.11516688764095,99.67697547376156"></polygon><polygon fill="url('#left-ear-gradient')" stroke="url('#left-ear-gradient')" points="178.6276437342167,97.23282468318939 177.61722153425217,87.66832369565964 212.1417984366417,97.63935124874115"></polygon><polygon fill="url('#left-ear-gradient')" stroke="url('#left-ear-gradient')" points="214.43187233805656,52.994880855083466 212.1417984366417,97.63935124874115 175.9076943397522,79.70607879757881"></polygon><polygon fill="url('#left-ear-gradient')" stroke="url('#left-ear-gradient')" points="227.1966140717268,99.56654398143291 212.1417984366417,97.63935124874115 214.43187233805656,52.994880855083466"></polygon><polygon fill="url('#left-ear-gradient')" stroke="url('#left-ear-gradient')" points="183.24539628624916,111.21643005311489 212.1417984366417,97.63935124874115 227.1966140717268,99.56654398143291"></polygon><polygon fill="url('#left-ear-gradient')" stroke="url('#left-ear-gradient')" points="178.6276437342167,97.23282468318939 212.1417984366417,97.63935124874115 183.24539628624916,111.21643005311489"></polygon><polygon fill="url('#back-gradient')" stroke="url('#back-gradient')" points="305.46440088003874,184.54624578356743 307.46797858178616,183.7187006175518 319.0674287080765,188.16115349531174"></polygon><polygon fill="url('#back-gradient')" stroke="url('#back-gradient')" points="319.0674287080765,188.16115349531174 369.0910364985466,209.1216956973076 305.46440088003874,184.54624578356743"></polygon><polygon fill="url('#back-gradient')" stroke="url('#back-gradient')" points="240.65568698197603,184.55632227659225 176.86344239115715,209.227192401886 227.48927128314972,188.18068572878838"></polygon><polygon fill="url('#back-gradient')" stroke="url('#back-gradient')" points="227.48927128314972,188.18068572878838 238.8504739254713,183.72845697402954 240.65568698197603,184.55632227659225"></polygon><polygon fill="url('#right-ear-gradient')" stroke="url('#right-ear-gradient')" points="374.765529692173,82.70998248457909 368.5067228078842,87.93370908498764 370.2033950686455,80.00086989998817"></polygon><polygon fill="url('#right-ear-gradient')" stroke="url('#right-ear-gradient')" points="331.959495306015,53.223419308662415 375.0830384194851,46.29803031682968 370.2033950686455,80.00086989998817"></polygon><polygon fill="url('#left-ear-gradient')" stroke="url('#left-ear-gradient')" points="171.34211003780365,82.4101394712925 175.9076943397522,79.70607879757881 177.61722153425217,87.66832369565964"></polygon><polygon fill="url('#right-ear-gradient')" stroke="url('#right-ear-gradient')" points="367.510262042284,97.46660634875298 368.5067228078842,87.93370908498764 373.69435572624207,91.2458613216877"></polygon><polygon fill="url('#right-ear-gradient')" stroke="url('#right-ear-gradient')" points="319.11516688764095,99.67697547376156 288.39117758721113,71.97235673666 331.959495306015,53.223419308662415"></polygon><polygon fill="url('#left-ear-gradient')" stroke="url('#left-ear-gradient')" points="214.43187233805656,52.994880855083466 258.1362265795469,71.92263016104698 227.1966140717268,99.56654398143291"></polygon><polygon fill="url('#left-ear-gradient')" stroke="url('#left-ear-gradient')" points="175.9076943397522,79.70607879757881 171.1228195130825,45.87854993343353 214.43187233805656,52.994880855083466"></polygon><polygon fill="url('#left-ear-gradient')" stroke="url('#left-ear-gradient')" points="178.6276437342167,97.23282468318939 172.42643997073174,90.97668895125389 177.61722153425217,87.66832369565964"></polygon><polygon fill="url('#right-ear-gradient')" stroke="url('#right-ear-gradient')" points="362.9160389006138,111.39874391257763 367.510262042284,97.46660634875298 371.7585003376007,99.98851908743382"></polygon><polygon fill="url('#left-ear-gradient')" stroke="url('#left-ear-gradient')" points="183.24539628624916,111.21643005311489 174.37697276473045,99.75216656923294 178.6276437342167,97.23282468318939"></polygon><polygon fill="url('#right-upper-cheek-gradient')" stroke="url('#right-upper-cheek-gradient')" points="362.9160389006138,111.39874391257763 332.8710077404976,112.27638654410839 319.11516688764095,99.67697547376156"></polygon><polygon fill="url('#right-ear-gradient')" stroke="url('#right-ear-gradient')" points="363.4704201221466,15.315886795520782 375.0830384194851,46.29803031682968 331.959495306015,53.223419308662415"></polygon><polygon fill="url('#right-ear-gradient')" stroke="url('#right-ear-gradient')" points="331.959495306015,53.223419308662415 288.39117758721113,71.97235673666 363.4704201221466,15.315886795520782"></polygon><polygon fill="url('#right-lower-cheek-gradient')" stroke="url('#right-lower-cheek-gradient')" points="380.1806135773659,158.88610492646694 369.0910364985466,209.1216956973076 319.0674287080765,188.16115349531174"></polygon><polygon fill="url('#left-upper-cheek-gradient')" stroke="url('#left-upper-cheek-gradient')" points="183.24539628624916,111.21643005311489 227.1966140717268,99.56654398143291 213.78020855784416,112.15727232396603"></polygon><polygon fill="url('#right-upper-cheek-gradient')" stroke="url('#right-upper-cheek-gradient')" points="332.8710077404976,112.27638654410839 362.9160389006138,111.39874391257763 380.1806135773659,158.88610492646694"></polygon><polygon fill="url('#left-ear-gradient')" stroke="url('#left-ear-gradient')" points="182.96575266122818,14.855249345302582 258.1362265795469,71.92263016104698 214.43187233805656,52.994880855083466"></polygon><polygon fill="url('#left-ear-gradient')" stroke="url('#left-ear-gradient')" points="214.43187233805656,52.994880855083466 171.1228195130825,45.87854993343353 182.96575266122818,14.855249345302582"></polygon><polygon fill="url('#left-lower-cheek-gradient')" stroke="url('#left-lower-cheek-gradient')" points="227.48927128314972,188.18068572878838 176.86344239115715,209.227192401886 165.7658350467682,158.83142013847828"></polygon><polygon fill="url('#left-upper-cheek-gradient')" stroke="url('#left-upper-cheek-gradient')" points="213.78020855784416,112.15727232396603 165.7658350467682,158.83142013847828 183.24539628624916,111.21643005311489"></polygon><polygon fill="url('#right-lower-cheek-gradient')" stroke="url('#right-lower-cheek-gradient')" points="319.0674287080765,188.16115349531174 340.6820112615824,150.0594757348299 380.1806135773659,158.88610492646694"></polygon><polygon fill="url('#right-upper-cheek-gradient')" stroke="url('#right-upper-cheek-gradient')" points="332.8710077404976,112.27638654410839 380.1806135773659,158.88610492646694 340.6820112615824,150.0594757348299"></polygon><polygon fill="url('#right-forehead-gradient')" stroke="url('#right-forehead-gradient')" points="319.11516688764095,99.67697547376156 332.8710077404976,112.27638654410839 286.1782800704241,111.53968207538128"></polygon><polygon fill="url('#right-forehead-gradient')" stroke="url('#right-forehead-gradient')" points="286.1782800704241,111.53968207538128 288.39117758721113,71.97235673666 319.11516688764095,99.67697547376156"></polygon><polygon fill="url('#left-forehead-gradient')" stroke="url('#left-forehead-gradient')" points="227.1966140717268,99.56654398143291 258.1362265795469,71.92263016104698 260.7310417369008,111.51394817233086"></polygon><polygon fill="url('#left-forehead-gradient')" stroke="url('#left-forehead-gradient')" points="260.7310417369008,111.51394817233086 213.78020855784416,112.15727232396603 227.1966140717268,99.56654398143291"></polygon><polygon fill="url('#left-lower-cheek-gradient')" stroke="url('#left-lower-cheek-gradient')" points="165.7658350467682,158.83142013847828 205.9681880325079,150.00612224638462 227.48927128314972,188.18068572878838"></polygon><polygon fill="url('#left-upper-cheek-gradient')" stroke="url('#left-upper-cheek-gradient')" points="205.9681880325079,150.00612224638462 165.7658350467682,158.83142013847828 213.78020855784416,112.15727232396603"></polygon><polygon fill="url('#forehead-gradient')" stroke="url('#forehead-gradient')" points="258.1362265795469,71.92263016104698 288.39117758721113,71.97235673666 286.1782800704241,111.53968207538128"></polygon><polygon fill="url('#forehead-gradient')" stroke="url('#forehead-gradient')" points="286.1782800704241,111.53968207538128 260.7310417369008,111.51394817233086 258.1362265795469,71.92263016104698"></polygon><polygon fill="url('#right-middle-cheek-gradient')" stroke="url('#right-middle-cheek-gradient')" points="319.0674287080765,188.16115349531174 314.2357106655836,147.9065789282322 340.6820112615824,150.0594757348299"></polygon><polygon fill="url('#left-middle-cheek-gradient')" stroke="url('#left-middle-cheek-gradient')" points="227.48927128314972,188.18068572878838 205.9681880325079,150.00612224638462 232.64330644905567,147.87146931886673"></polygon><polygon fill="rgb(156,90,221)" stroke="rgb(156,90,221)" points="286.1782800704241,111.53968207538128 332.8710077404976,112.27638654410839 314.4622300565243,129.44680581241846"></polygon><polygon fill="rgb(156,90,221)" stroke="rgb(156,90,221)" points="232.35979413986206,129.3872483363375 213.78020855784416,112.15727232396603 260.7310417369008,111.51394817233086"></polygon><polygon fill="url('#right-outer-eye-gradient')" stroke="url('#right-outer-eye-gradient')" points="332.8710077404976,112.27638654410839 314.2357106655836,147.9065789282322 314.4622300565243,129.44680581241846"></polygon><polygon fill="url('#right-upper-cheek-gradient')" stroke="url('#right-upper-cheek-gradient')" points="340.6820112615824,150.0594757348299 314.2357106655836,147.9065789282322 332.8710077404976,112.27638654410839"></polygon><polygon fill="url('#left-outer-eye-gradient')" stroke="url('#left-outer-eye-gradient')" points="213.78020855784416,112.15727232396603 232.35979413986206,129.3872483363375 232.64330644905567,147.87146931886673"></polygon><polygon fill="url('#left-upper-cheek-gradient')" stroke="url('#left-upper-cheek-gradient')" points="213.78020855784416,112.15727232396603 232.64330644905567,147.87146931886673 205.9681880325079,150.00612224638462"></polygon><polygon fill="rgb(156,90,221)" stroke="rgb(156,90,221)" points="314.4622300565243,129.44680581241846 297.5553703531623,121.52673304826021 286.1782800704241,111.53968207538128"></polygon><polygon fill="rgb(156,90,221)" stroke="rgb(156,90,221)" points="260.7310417369008,111.51394817233086 249.3180084899068,121.48564430326223 232.35979413986206,129.3872483363375"></polygon><polygon fill="rgb(223,117,84)" stroke="rgb(223,117,84)" points="292.14985037595034,183.82694190740585 319.0674287080765,188.16115349531174 309.7405966222286,192.18230667710304"></polygon><polygon fill="rgb(22,22,22)" stroke="rgb(22,22,22)" points="290.76380172371864,134.4169688951224 297.5553703531623,121.52673304826021 314.4622300565243,129.44680581241846"></polygon><polygon fill="url('#right-below-eye-gradient')" stroke="url('#right-below-eye-gradient')" points="314.2357106655836,147.9065789282322 290.76380172371864,134.4169688951224 314.4622300565243,129.44680581241846"></polygon><polygon fill="rgb(223,117,84)" stroke="rgb(223,117,84)" points="237.0612908899784,192.20247527956963 227.48927128314972,188.18068572878838 255.43042168021202,183.83222416043282"></polygon><polygon fill="rgb(22,22,22)" stroke="rgb(22,22,22)" points="256.2168873399496,134.39466181956232 232.35979413986206,129.3872483363375 249.3180084899068,121.48564430326223"></polygon><polygon fill="url('#left-below-eye-gradient')" stroke="url('#left-below-eye-gradient')" points="232.64330644905567,147.87146931886673 232.35979413986206,129.3872483363375 256.2168873399496,134.39466181956232"></polygon><polygon fill="rgb(156,90,221)" stroke="rgb(156,90,221)" points="297.5553703531623,121.52673304826021 290.76380172371864,134.4169688951224 286.1782800704241,111.53968207538128"></polygon><polygon fill="rgb(156,90,221)" stroke="rgb(156,90,221)" points="249.3180084899068,121.48564430326223 260.7310417369008,111.51394817233086 256.2168873399496,134.39466181956232"></polygon><polygon fill="url('#right-inner-eye-gradient')" stroke="url('#right-inner-eye-gradient')" points="290.76380172371864,134.4169688951224 285.2817776016891,123.95816085115075 286.1782800704241,111.53968207538128"></polygon><polygon fill="url('#forehead-gradient')" stroke="url('#forehead-gradient')" points="261.7804365567863,123.9390595331788 260.7310417369008,111.51394817233086 286.1782800704241,111.53968207538128"></polygon><polygon fill="url('#forehead-gradient')" stroke="url('#forehead-gradient')" points="286.1782800704241,111.53968207538128 285.2817776016891,123.95816085115075 261.7804365567863,123.9390595331788"></polygon><polygon fill="url('#left-inner-eye-gradient')" stroke="url('#left-inner-eye-gradient')" points="256.2168873399496,134.39466181956232 260.7310417369008,111.51394817233086 261.7804365567863,123.9390595331788"></polygon><polygon fill="rgb(147,131,250)" stroke="rgb(147,131,250)" points="289.9062678068876,152.01046788692474 314.2357106655836,147.9065789282322 319.0674287080765,188.16115349531174"></polygon><polygon fill="rgb(255,159,90)" stroke="rgb(255,159,90)" points="292.3677740469575,171.94287595152855 319.0674287080765,188.16115349531174 292.14985037595034,183.82694190740585"></polygon><polygon fill="rgb(255,159,90)" stroke="rgb(255,159,90)" points="319.0674287080765,188.16115349531174 292.3677740469575,171.94287595152855 289.9062678068876,152.01046788692474"></polygon><polygon fill="rgb(147,131,250)" stroke="rgb(147,131,250)" points="257.8806300200522,151.9987926632166 227.48927128314972,188.18068572878838 232.64330644905567,147.87146931886673"></polygon><polygon fill="rgb(255,159,90)" stroke="rgb(255,159,90)" points="255.40111365169287,171.9411776661873 255.43042168021202,183.83222416043282 227.48927128314972,188.18068572878838"></polygon><polygon fill="rgb(255,159,90)" stroke="rgb(255,159,90)" points="227.48927128314972,188.18068572878838 257.8806300200522,151.9987926632166 255.40111365169287,171.9411776661873"></polygon><polygon fill="rgb(223,117,84)" stroke="rgb(223,117,84)" points="309.7405966222286,192.18230667710304 290.6107588559389,191.62472641468048 292.14985037595034,183.82694190740585"></polygon><polygon fill="rgb(223,117,84)" stroke="rgb(223,117,84)" points="291.5865886732936,192.18734687566757 290.6107588559389,191.62472641468048 309.7405966222286,192.18230667710304"></polygon><polygon fill="rgb(223,117,84)" stroke="rgb(223,117,84)" points="257.02032374963164,191.63374489545822 290.6107588559389,191.62472641468048 291.5865886732936,192.18734687566757"></polygon><polygon fill="rgb(223,117,84)" stroke="rgb(223,117,84)" points="291.5865886732936,192.18734687566757 255.246945977211,192.19743117690086 257.02032374963164,191.63374489545822"></polygon><polygon fill="rgb(223,117,84)" stroke="rgb(223,117,84)" points="255.246945977211,192.19743117690086 237.0612908899784,192.20247527956963 257.02032374963164,191.63374489545822"></polygon><polygon fill="rgb(223,117,84)" stroke="rgb(223,117,84)" points="255.43042168021202,183.83222416043282 257.02032374963164,191.63374489545822 237.0612908899784,192.20247527956963"></polygon><polygon fill="url('#right-below-eye-gradient')" stroke="url('#right-below-eye-gradient')" points="290.76380172371864,134.4169688951224 314.2357106655836,147.9065789282322 289.9062678068876,152.01046788692474"></polygon><polygon fill="url('#left-below-eye-gradient')" stroke="url('#left-below-eye-gradient')" points="257.8806300200522,151.9987926632166 232.64330644905567,147.87146931886673 256.2168873399496,134.39466181956232"></polygon><polygon fill="url('#right-inner-eye-gradient')" stroke="url('#right-inner-eye-gradient')" points="285.2817776016891,123.95816085115075 290.76380172371864,134.4169688951224 285.76431764289737,149.1454761326313"></polygon><polygon fill="url('#right-below-eye-gradient')" stroke="url('#right-below-eye-gradient')" points="289.9062678068876,152.01046788692474 285.76431764289737,149.1454761326313 290.76380172371864,134.4169688951224"></polygon><polygon fill="url('#left-inner-eye-gradient')" stroke="url('#left-inner-eye-gradient')" points="261.7804365567863,123.9390595331788 262.0240395851433,149.1357353925705 256.2168873399496,134.39466181956232"></polygon><polygon fill="url('#left-below-eye-gradient')" stroke="url('#left-below-eye-gradient')" points="256.2168873399496,134.39466181956232 262.0240395851433,149.1357353925705 257.8806300200522,151.9987926632166"></polygon><polygon fill="url('#forehead-gradient')" stroke="url('#forehead-gradient')" points="261.7804365567863,123.9390595331788 285.2817776016891,123.95816085115075 285.76431764289737,149.1454761326313"></polygon><polygon fill="url('#forehead-gradient')" stroke="url('#forehead-gradient')" points="285.76431764289737,149.1454761326313 262.0240395851433,149.1357353925705 261.7804365567863,123.9390595331788"></polygon><polygon fill="rgb(223,117,84)" stroke="rgb(223,117,84)" points="292.3677740469575,171.94287595152855 292.14985037595034,183.82694190740585 290.6107588559389,191.62472641468048"></polygon><polygon fill="rgb(223,117,84)" stroke="rgb(223,117,84)" points="257.02032374963164,191.63374489545822 255.43042168021202,183.83222416043282 255.40111365169287,171.9411776661873"></polygon><polygon fill="rgb(223,117,84)" stroke="rgb(223,117,84)" points="290.2517360150814,168.26794654130936 290.6107588559389,191.62472641468048 257.02032374963164,191.63374489545822"></polygon><polygon fill="rgb(223,117,84)" stroke="rgb(223,117,84)" points="290.6107588559389,191.62472641468048 290.2517360150814,168.26794654130936 292.3677740469575,171.94287595152855"></polygon><polygon fill="rgb(223,117,84)" stroke="rgb(223,117,84)" points="255.40111365169287,171.9411776661873 257.60921701043844,168.26452654600143 257.02032374963164,191.63374489545822"></polygon><polygon fill="rgb(223,117,84)" stroke="rgb(223,117,84)" points="257.02032374963164,191.63374489545822 257.60921701043844,168.26452654600143 290.2517360150814,168.26794654130936"></polygon><polygon fill="rgb(22,22,22)" stroke="rgb(22,22,22)" points="289.9062678068876,152.01046788692474 292.3677740469575,171.94287595152855 290.2517360150814,168.26794654130936"></polygon><polygon fill="rgb(22,22,22)" stroke="rgb(22,22,22)" points="257.60921701043844,168.26452654600143 255.40111365169287,171.9411776661873 257.8806300200522,151.9987926632166"></polygon><polygon fill="rgb(22,22,22)" stroke="rgb(22,22,22)" points="286.0881033204496,149.74506260454655 285.76431764289737,149.1454761326313 289.9062678068876,152.01046788692474"></polygon><polygon fill="rgb(22,22,22)" stroke="rgb(22,22,22)" points="261.88543309271336,149.7353648096323 262.0240395851433,149.1357353925705 285.76431764289737,149.1454761326313"></polygon><polygon fill="rgb(22,22,22)" stroke="rgb(22,22,22)" points="285.76431764289737,149.1454761326313 286.0881033204496,149.74506260454655 261.88543309271336,149.7353648096323"></polygon><polygon fill="rgb(22,22,22)" stroke="rgb(22,22,22)" points="257.8806300200522,151.9987926632166 262.0240395851433,149.1357353925705 261.88543309271336,149.7353648096323"></polygon><polygon fill="rgb(22,22,22)" stroke="rgb(22,22,22)" points="290.2517360150814,168.26794654130936 288.7448835298419,152.716718390584 289.9062678068876,152.01046788692474"></polygon><polygon fill="rgb(22,22,22)" stroke="rgb(22,22,22)" points="289.9062678068876,152.01046788692474 288.7448835298419,152.716718390584 286.0881033204496,149.74506260454655"></polygon><polygon fill="rgb(22,22,22)" stroke="rgb(22,22,22)" points="257.8806300200522,151.9987926632166 259.22892747446895,152.70629052817822 257.60921701043844,168.26452654600143"></polygon><polygon fill="rgb(22,22,22)" stroke="rgb(22,22,22)" points="261.88543309271336,149.7353648096323 259.22892747446895,152.70629052817822 257.8806300200522,151.9987926632166"></polygon><polygon fill="rgb(22,22,22)" stroke="rgb(22,22,22)" points="259.22892747446895,152.70629052817822 288.7448835298419,152.716718390584 290.2517360150814,168.26794654130936"></polygon><polygon fill="rgb(22,22,22)" stroke="rgb(22,22,22)" points="290.2517360150814,168.26794654130936 257.60921701043844,168.26452654600143 259.22892747446895,152.70629052817822"></polygon><polygon fill="rgb(22,22,22)" stroke="rgb(22,22,22)" points="286.0881033204496,149.74506260454655 288.7448835298419,152.716718390584 259.22892747446895,152.70629052817822"></polygon><polygon fill="rgb(22,22,22)" stroke="rgb(22,22,22)" points="259.22892747446895,152.70629052817822 261.88543309271336,149.7353648096323 286.0881033204496,149.74506260454655"></polygon></svg>