<!DOCTYPE svg PUBLIC "-//W3C//DTD SVG 1.1//EN" "http://www.w3.org/Graphics/SVG/1.1/DTD/svg11.dtd"> <svg width="521px" height="235px" version="1.1" baseProfile="full" xmlns="http://www.w3.org/2000/svg" xmlns:xlink="http://www.w3.org/1999/xlink" xmlns:ev="http://www.w3.org/2001/xml-events"><polygon fill="rgb(247,132,25)" stroke="rgb(247,132,25)" points="248.4200201779604,42.08915948867798 297.92329401522875,42.290661334991455 287.354903139174,66.11857295036316"></polygon><polygon fill="rgb(247,132,25)" stroke="rgb(247,132,25)" points="287.354903139174,66.11857295036316 259.614279538393,66.02882981300354 248.4200201779604,42.08915948867798"></polygon><polygon fill="rgb(225,119,25)" stroke="rgb(225,119,25)" points="356.232596129179,14.291338920593262 287.354903139174,66.11857295036316 297.92329401522875,42.290661334991455"></polygon><polygon fill="rgb(228,119,25)" stroke="rgb(228,119,25)" points="259.614279538393,66.02882981300354 190.56846150755882,13.452887535095215 248.4200201779604,42.08915948867798"></polygon><polygon fill="rgb(119,57,0)" stroke="rgb(119,57,0)" points="328.9798070937395,89.7343397140503 362.16513991355896,73.54001998901367 360.6037536263466,80.81135988235474"></polygon><polygon fill="rgb(119,57,0)" stroke="rgb(119,57,0)" points="359.6826894879341,89.55082297325134 328.9798070937395,89.7343397140503 360.6037536263466,80.81135988235474"></polygon><polygon fill="rgb(119,57,0)" stroke="rgb(119,57,0)" points="355.46333411335945,102.30870544910431 315.4066080003977,91.5043169260025 328.9798070937395,89.7343397140503"></polygon><polygon fill="rgb(119,57,0)" stroke="rgb(119,57,0)" points="359.6826894879341,89.55082297325134 355.46333411335945,102.30870544910431 328.9798070937395,89.7343397140503"></polygon><polygon fill="rgb(119,57,0)" stroke="rgb(119,57,0)" points="362.16513991355896,73.54001998901367 328.9798070937395,89.7343397140503 327.2572703808546,48.95514965057373"></polygon><polygon fill="rgb(119,57,0)" stroke="rgb(119,57,0)" points="327.2572703808546,48.95514965057373 328.9798070937395,89.7343397140503 315.4066080003977,91.5043169260025"></polygon><polygon fill="rgb(119,57,0)" stroke="rgb(119,57,0)" points="217.29082994163036,89.46493148803711 185.62320917844772,80.33402681350708 184.03812262415886,73.00863146781921"></polygon><polygon fill="rgb(119,57,0)" stroke="rgb(119,57,0)" points="186.5699750483036,89.1316831111908 185.62320917844772,80.33402681350708 217.29082994163036,89.46493148803711"></polygon><polygon fill="rgb(119,57,0)" stroke="rgb(119,57,0)" points="190.83266294002533,101.98384523391724 217.29082994163036,89.46493148803711 231.16593284904957,91.30643606185913"></polygon><polygon fill="rgb(119,57,0)" stroke="rgb(119,57,0)" points="186.5699750483036,89.1316831111908 217.29082994163036,89.46493148803711 190.83266294002533,101.98384523391724"></polygon><polygon fill="rgb(119,57,0)" stroke="rgb(119,57,0)" points="219.46176382899284,48.54108810424805 217.29082994163036,89.46493148803711 184.03812262415886,73.00863146781921"></polygon><polygon fill="rgb(119,57,0)" stroke="rgb(119,57,0)" points="231.16593284904957,91.30643606185913 217.29082994163036,89.46493148803711 219.46176382899284,48.54108810424805"></polygon><polygon fill="rgb(225,119,25)" stroke="rgb(225,119,25)" points="302.76519227027893,169.1095769405365 304.6901209652424,168.45074772834778 315.4113513082266,172.64036536216736"></polygon><polygon fill="rgb(225,119,25)" stroke="rgb(225,119,25)" points="315.4113513082266,172.64036536216736 360.8810296654701,191.58699989318848 302.76519227027893,169.1095769405365"></polygon><polygon fill="rgb(225,119,25)" stroke="rgb(225,119,25)" points="243.45508678257465,169.13149237632751 185.03586074709892,191.7907977104187 231.6097046881914,172.68171072006226"></polygon><polygon fill="rgb(225,119,25)" stroke="rgb(225,119,25)" points="231.6097046881914,172.68171072006226 241.89400152862072,168.4725058078766 243.45508678257465,169.13149237632751"></polygon><polygon fill="rgb(119,57,0)" stroke="rgb(119,57,0)" points="366.3416834771633,76.04209899902344 360.6037536263466,80.81135988235474 362.16513991355896,73.54001998901367"></polygon><polygon fill="rgb(119,57,0)" stroke="rgb(119,57,0)" points="327.2572703808546,48.95514965057373 366.73557329177856,42.691941261291504 362.16513991355896,73.54001998901367"></polygon><polygon fill="rgb(119,57,0)" stroke="rgb(119,57,0)" points="359.6826894879341,89.55082297325134 360.6037536263466,80.81135988235474 365.35232546925545,83.86754751205444"></polygon><polygon fill="rgb(119,57,0)" stroke="rgb(119,57,0)" points="315.4066080003977,91.5043169260025 287.354903139174,66.11857295036316 327.2572703808546,48.95514965057373"></polygon><polygon fill="rgb(119,57,0)" stroke="rgb(119,57,0)" points="179.85517600178719,75.50206303596497 184.03812262415886,73.00863146781921 185.62320917844772,80.33402681350708"></polygon><polygon fill="rgb(119,57,0)" stroke="rgb(119,57,0)" points="219.46176382899284,48.54108810424805 259.614279538393,66.02882981300354 231.16593284904957,91.30643606185913"></polygon><polygon fill="rgb(119,57,0)" stroke="rgb(119,57,0)" points="184.03812262415886,73.00863146781921 179.64160510897636,41.93115949630737 219.46176382899284,48.54108810424805"></polygon><polygon fill="rgb(119,57,0)" stroke="rgb(119,57,0)" points="355.46333411335945,102.30870544910431 359.6826894879341,89.55082297325134 363.57118490338326,91.87766253948212"></polygon><polygon fill="rgb(119,57,0)" stroke="rgb(119,57,0)" points="186.5699750483036,89.1316831111908 180.86877939105034,83.38399529457092 185.62320917844772,80.33402681350708"></polygon><polygon fill="rgb(119,57,0)" stroke="rgb(119,57,0)" points="190.83266294002533,101.98384523391724 182.6769641339779,91.45439386367798 186.5699750483036,89.1316831111908"></polygon><polygon fill="rgb(228,119,25)" stroke="rgb(228,119,25)" points="371.1053069829941,145.7229208946228 360.8810296654701,191.58699989318848 315.4113513082266,172.64036536216736"></polygon><polygon fill="rgb(247,132,25)" stroke="rgb(247,132,25)" points="355.46333411335945,102.30870544910431 328.156993702054,103.25477242469788 315.4066080003977,91.5043169260025"></polygon><polygon fill="rgb(247,132,25)" stroke="rgb(247,132,25)" points="328.156993702054,103.25477242469788 355.46333411335945,102.30870544910431 371.1053069829941,145.7229208946228"></polygon><polygon fill="rgb(119,57,0)" stroke="rgb(119,57,0)" points="356.232596129179,14.291338920593262 366.73557329177856,42.691941261291504 327.2572703808546,48.95514965057373"></polygon><polygon fill="rgb(119,57,0)" stroke="rgb(119,57,0)" points="327.2572703808546,48.95514965057373 287.354903139174,66.11857295036316 356.232596129179,14.291338920593262"></polygon><polygon fill="rgb(247,132,25)" stroke="rgb(247,132,25)" points="190.83266294002533,101.98384523391724 231.16593284904957,91.30643606185913 219.03871446847916,103.04327845573425"></polygon><polygon fill="rgb(228,119,25)" stroke="rgb(228,119,25)" points="231.6097046881914,172.68171072006226 185.03586074709892,191.7907977104187 174.7962795495987,145.63448667526245"></polygon><polygon fill="rgb(228,119,25)" stroke="rgb(228,119,25)" points="315.4113513082266,172.64036536216736 335.27341993153095,137.87382423877716 371.1053069829941,145.7229208946228"></polygon><polygon fill="rgb(247,132,25)" stroke="rgb(247,132,25)" points="328.156993702054,103.25477242469788 371.1053069829941,145.7229208946228 335.27341993153095,137.87382423877716"></polygon><polygon fill="rgb(119,57,0)" stroke="rgb(119,57,0)" points="190.56846150755882,13.452887535095215 259.614279538393,66.02882981300354 219.46176382899284,48.54108810424805"></polygon><polygon fill="rgb(119,57,0)" stroke="rgb(119,57,0)" points="219.46176382899284,48.54108810424805 179.64160510897636,41.93115949630737 190.56846150755882,13.452887535095215"></polygon><polygon fill="rgb(247,132,25)" stroke="rgb(247,132,25)" points="219.03871446847916,103.04327845573425 174.7962795495987,145.63448667526245 190.83266294002533,101.98384523391724"></polygon><polygon fill="rgb(228,119,25)" stroke="rgb(228,119,25)" points="315.4066080003977,91.5043169260025 328.156993702054,103.25477242469788 285.4931476972997,102.61227428913116"></polygon><polygon fill="rgb(228,119,25)" stroke="rgb(228,119,25)" points="285.4931476972997,102.61227428913116 287.354903139174,66.11857295036316 315.4066080003977,91.5043169260025"></polygon><polygon fill="rgb(228,119,25)" stroke="rgb(228,119,25)" points="231.16593284904957,91.30643606185913 259.614279538393,66.02882981300354 262.1767590455711,102.56662666797638"></polygon><polygon fill="rgb(228,119,25)" stroke="rgb(228,119,25)" points="262.1767590455711,102.56662666797638 219.03871446847916,103.04327845573425 231.16593284904957,91.30643606185913"></polygon><polygon fill="rgb(228,119,25)" stroke="rgb(228,119,25)" points="174.7962795495987,145.63448667526245 211.91976200044155,137.78438329696655 231.6097046881914,172.68171072006226"></polygon><polygon fill="rgb(247,132,25)" stroke="rgb(247,132,25)" points="211.91976200044155,137.78438329696655 174.7962795495987,145.63448667526245 219.03871446847916,103.04327845573425"></polygon><polygon fill="rgb(247,132,25)" stroke="rgb(247,132,25)" points="259.614279538393,66.02882981300354 287.354903139174,66.11857295036316 285.4931476972997,102.61227428913116"></polygon><polygon fill="rgb(247,132,25)" stroke="rgb(247,132,25)" points="285.4931476972997,102.61227428913116 262.1767590455711,102.56662666797638 259.614279538393,66.02882981300354"></polygon><polygon fill="rgb(205,98,0)" stroke="rgb(205,98,0)" points="315.4113513082266,172.64036536216736 311.1636174470186,135.9615308046341 335.27341993153095,137.87382423877716"></polygon><polygon fill="rgb(205,98,0)" stroke="rgb(205,98,0)" points="231.6097046881914,172.68171072006226 211.91976200044155,137.78438329696655 236.4496116489172,135.90239882469177"></polygon><polygon fill="rgb(205,98,0)" stroke="rgb(205,98,0)" points="285.4931476972997,102.61227428913116 328.156993702054,103.25477242469788 311.356949955225,119.02807004749775"></polygon><polygon fill="rgb(228,116,36)" stroke="rgb(228,116,36)" points="328.156993702054,103.25477242469788 311.1636174470186,135.9615308046341 311.356949955225,119.02807004749775"></polygon><polygon fill="rgb(247,132,25)" stroke="rgb(247,132,25)" points="335.27341993153095,137.87382423877716 311.1636174470186,135.9615308046341 328.156993702054,103.25477242469788"></polygon><polygon fill="rgb(205,98,0)" stroke="rgb(205,98,0)" points="236.15212163329124,118.9239426702261 219.03871446847916,103.04327845573425 262.1767590455711,102.56662666797638"></polygon><polygon fill="rgb(228,116,36)" stroke="rgb(228,116,36)" points="219.03871446847916,103.04327845573425 236.15212163329124,118.9239426702261 236.4496116489172,135.90239882469177"></polygon><polygon fill="rgb(247,132,25)" stroke="rgb(247,132,25)" points="219.03871446847916,103.04327845573425 236.4496116489172,135.90239882469177 211.91976200044155,137.78438329696655"></polygon><polygon fill="rgb(205,98,0)" stroke="rgb(205,98,0)" points="311.356949955225,119.02807004749775 295.8971591591835,111.76701664924622 285.4931476972997,102.61227428913116"></polygon><polygon fill="rgb(205,98,0)" stroke="rgb(205,98,0)" points="262.1767590455711,102.56662666797638 251.70644704252481,111.69463098049164 236.15212163329124,118.9239426702261"></polygon><polygon fill="rgb(192,172,157)" stroke="rgb(192,172,157)" points="291.2504667341709,169.15316104888916 315.4113513082266,172.64036536216736 306.986538939178,176.42641067504883"></polygon><polygon fill="rgb(36,51,67)" stroke="rgb(36,51,67)" points="289.7209747172892,123.62413018941879 295.8971591591835,111.76701664924622 311.356949955225,119.02807004749775"></polygon><polygon fill="rgb(247,132,25)" stroke="rgb(247,132,25)" points="311.1636174470186,135.9615308046341 289.7209747172892,123.62413018941879 311.356949955225,119.02807004749775"></polygon><polygon fill="rgb(192,172,157)" stroke="rgb(192,172,157)" points="240.4840959906578,176.4680314064026 231.6097046881914,172.68171072006226 257.6480177566409,169.1656243801117"></polygon><polygon fill="rgb(205,98,0)" stroke="rgb(205,98,0)" points="295.8971591591835,111.76701664924622 289.7209747172892,123.62413018941879 285.4931476972997,102.61227428913116"></polygon><polygon fill="rgb(36,51,67)" stroke="rgb(36,51,67)" points="258.07928857952356,123.58544290065765 236.15212163329124,118.9239426702261 251.70644704252481,111.69463098049164"></polygon><polygon fill="rgb(247,132,25)" stroke="rgb(247,132,25)" points="236.4496116489172,135.90239882469177 236.15212163329124,118.9239426702261 258.07928857952356,123.58544290065765"></polygon><polygon fill="rgb(205,98,0)" stroke="rgb(205,98,0)" points="251.70644704252481,111.69463098049164 262.1767590455711,102.56662666797638 258.07928857952356,123.58544290065765"></polygon><polygon fill="rgb(228,119,25)" stroke="rgb(228,119,25)" points="289.30096213147044,140.13210654258728 311.1636174470186,135.9615308046341 315.4113513082266,172.64036536216736"></polygon><polygon fill="rgb(225,119,25)" stroke="rgb(225,119,25)" points="289.7209747172892,123.62413018941879 284.73950991779566,114.07235518097878 285.4931476972997,102.61227428913116"></polygon><polygon fill="rgb(247,132,25)" stroke="rgb(247,132,25)" points="263.2107604891062,114.03884097933769 262.1767590455711,102.56662666797638 285.4931476972997,102.61227428913116"></polygon><polygon fill="rgb(247,132,25)" stroke="rgb(247,132,25)" points="285.4931476972997,102.61227428913116 284.73950991779566,114.07235518097878 263.2107604891062,114.03884097933769"></polygon><polygon fill="rgb(214,194,178)" stroke="rgb(214,194,178)" points="291.54017056524754,158.37185382843018 315.4113513082266,172.64036536216736 291.2504667341709,169.15316104888916"></polygon><polygon fill="rgb(214,194,178)" stroke="rgb(214,194,178)" points="315.4113513082266,172.64036536216736 291.54017056524754,158.37185382843018 289.30096213147044,140.13210654258728"></polygon><polygon fill="rgb(228,116,36)" stroke="rgb(228,116,36)" points="258.07928857952356,123.58544290065765 262.1767590455711,102.56662666797638 263.2107604891062,114.03884097933769"></polygon><polygon fill="rgb(228,119,25)" stroke="rgb(228,119,25)" points="259.9782602749765,140.1131969690323 231.6097046881914,172.68171072006226 236.4496116489172,135.90239882469177"></polygon><polygon fill="rgb(214,194,178)" stroke="rgb(214,194,178)" points="257.70490592345595,158.3716356754303 257.6480177566409,169.1656243801117 231.6097046881914,172.68171072006226"></polygon><polygon fill="rgb(214,194,178)" stroke="rgb(214,194,178)" points="231.6097046881914,172.68171072006226 259.9782602749765,140.1131969690323 257.70490592345595,158.3716356754303"></polygon><polygon fill="rgb(192,172,157)" stroke="rgb(192,172,157)" points="306.986538939178,176.42641067504883 289.8631041124463,176.3095736503601 291.2504667341709,169.15316104888916"></polygon><polygon fill="rgb(192,172,157)" stroke="rgb(192,172,157)" points="290.3899184167385,176.4367961883545 289.8631041124463,176.3095736503601 306.986538939178,176.42641067504883"></polygon><polygon fill="rgb(192,172,157)" stroke="rgb(192,172,157)" points="259.1281748972833,176.32867097854614 289.8631041124463,176.3095736503601 290.3899184167385,176.4367961883545"></polygon><polygon fill="rgb(192,172,157)" stroke="rgb(192,172,157)" points="290.3899184167385,176.4367961883545 257.1387305036187,176.45760655403137 259.1281748972833,176.32867097854614"></polygon><polygon fill="rgb(192,172,157)" stroke="rgb(192,172,157)" points="257.1387305036187,176.45760655403137 240.4840959906578,176.4680314064026 259.1281748972833,176.32867097854614"></polygon><polygon fill="rgb(192,172,157)" stroke="rgb(192,172,157)" points="257.6480177566409,169.1656243801117 259.1281748972833,176.32867097854614 240.4840959906578,176.4680314064026"></polygon><polygon fill="rgb(247,132,25)" stroke="rgb(247,132,25)" points="289.7209747172892,123.62413018941879 311.1636174470186,135.9615308046341 289.30096213147044,140.13210654258728"></polygon><polygon fill="rgb(247,132,25)" stroke="rgb(247,132,25)" points="259.9782602749765,140.1131969690323 236.4496116489172,135.90239882469177 258.07928857952356,123.58544290065765"></polygon><polygon fill="rgb(228,116,36)" stroke="rgb(228,116,36)" points="284.73950991779566,114.07235518097878 289.7209747172892,123.62413018941879 285.50986928120255,137.50598967075348"></polygon><polygon fill="rgb(247,132,25)" stroke="rgb(247,132,25)" points="289.30096213147044,140.13210654258728 285.50986928120255,137.50598967075348 289.7209747172892,123.62413018941879"></polygon><polygon fill="rgb(228,116,36)" stroke="rgb(228,116,36)" points="263.2107604891062,114.03884097933769 263.77219158411026,137.48997509479523 258.07928857952356,123.58544290065765"></polygon><polygon fill="rgb(247,132,25)" stroke="rgb(247,132,25)" points="258.07928857952356,123.58544290065765 263.77219158411026,137.48997509479523 259.9782602749765,140.1131969690323"></polygon><polygon fill="rgb(247,132,25)" stroke="rgb(247,132,25)" points="263.2107604891062,114.03884097933769 284.73950991779566,114.07235518097878 285.50986928120255,137.50598967075348"></polygon><polygon fill="rgb(247,132,25)" stroke="rgb(247,132,25)" points="285.50986928120255,137.50598967075348 263.77219158411026,137.48997509479523 263.2107604891062,114.03884097933769"></polygon><polygon fill="rgb(192,172,157)" stroke="rgb(192,172,157)" points="291.54017056524754,158.37185382843018 291.2504667341709,169.15316104888916 289.8631041124463,176.3095736503601"></polygon><polygon fill="rgb(192,172,157)" stroke="rgb(192,172,157)" points="259.1281748972833,176.32867097854614 257.6480177566409,169.1656243801117 257.70490592345595,158.3716356754303"></polygon><polygon fill="rgb(192,172,157)" stroke="rgb(192,172,157)" points="289.6466754376888,155.05225896835327 289.8631041124463,176.3095736503601 259.1281748972833,176.32867097854614"></polygon><polygon fill="rgb(192,172,157)" stroke="rgb(192,172,157)" points="289.8631041124463,176.3095736503601 289.6466754376888,155.05225896835327 291.54017056524754,158.37185382843018"></polygon><polygon fill="rgb(192,172,157)" stroke="rgb(192,172,157)" points="257.70490592345595,158.3716356754303 259.76750444993377,155.04859328269958 259.1281748972833,176.32867097854614"></polygon><polygon fill="rgb(192,172,157)" stroke="rgb(192,172,157)" points="259.1281748972833,176.32867097854614 259.76750444993377,155.04859328269958 289.6466754376888,155.05225896835327"></polygon><polygon fill="rgb(0,0,0)" stroke="rgb(0,0,0)" points="289.30096213147044,140.13210654258728 291.54017056524754,158.37185382843018 289.6466754376888,155.05225896835327"></polygon><polygon fill="rgb(0,0,0)" stroke="rgb(0,0,0)" points="259.76750444993377,155.04859328269958 257.70490592345595,158.3716356754303 259.9782602749765,140.1131969690323"></polygon><polygon fill="rgb(0,0,0)" stroke="rgb(0,0,0)" points="285.8912672325969,138.1455034017563 285.50986928120255,137.50598967075348 289.30096213147044,140.13210654258728"></polygon><polygon fill="rgb(0,0,0)" stroke="rgb(0,0,0)" points="263.7305940762162,138.12967479228973 263.77219158411026,137.48997509479523 285.50986928120255,137.50598967075348"></polygon><polygon fill="rgb(0,0,0)" stroke="rgb(0,0,0)" points="285.50986928120255,137.50598967075348 285.8912672325969,138.1455034017563 263.7305940762162,138.12967479228973"></polygon><polygon fill="rgb(0,0,0)" stroke="rgb(0,0,0)" points="259.9782602749765,140.1131969690323 263.77219158411026,137.48997509479523 263.7305940762162,138.12967479228973"></polygon><polygon fill="rgb(0,0,0)" stroke="rgb(0,0,0)" points="289.6466754376888,155.05225896835327 288.32324373722076,140.8689683675766 289.30096213147044,140.13210654258728"></polygon><polygon fill="rgb(0,0,0)" stroke="rgb(0,0,0)" points="289.30096213147044,140.13210654258728 288.32324373722076,140.8689683675766 285.8912672325969,138.1455034017563"></polygon><polygon fill="rgb(0,0,0)" stroke="rgb(0,0,0)" points="259.9782602749765,140.1131969690323 261.29893792793155,140.85223853588104 259.76750444993377,155.04859328269958"></polygon><polygon fill="rgb(0,0,0)" stroke="rgb(0,0,0)" points="263.7305940762162,138.12967479228973 261.29893792793155,140.85223853588104 259.9782602749765,140.1131969690323"></polygon><polygon fill="rgb(0,0,0)" stroke="rgb(0,0,0)" points="261.29893792793155,140.85223853588104 288.32324373722076,140.8689683675766 289.6466754376888,155.05225896835327"></polygon><polygon fill="rgb(0,0,0)" stroke="rgb(0,0,0)" points="289.6466754376888,155.05225896835327 259.76750444993377,155.04859328269958 261.29893792793155,140.85223853588104"></polygon><polygon fill="rgb(0,0,0)" stroke="rgb(0,0,0)" points="285.8912672325969,138.1455034017563 288.32324373722076,140.8689683675766 261.29893792793155,140.85223853588104"></polygon><polygon fill="rgb(0,0,0)" stroke="rgb(0,0,0)" points="261.29893792793155,140.85223853588104 263.7305940762162,138.12967479228973 285.8912672325969,138.1455034017563"></polygon></svg>